<svg xmlns="http://www.w3.org/2000/svg" viewBox="0 0 1202.35 397.13" class="logo-relativity">
  <defs>
    <style>.logo-relativity{fill:#ffffff;}</style>
  </defs>
  <title>relativity-logo-rgb</title>
  <path class="logo-relativity" d="M1089.87,133.33a11.53,11.53,0,1,1-11.21,11.52A11.36,11.36,0,0,1,1089.87,133.33Zm0,20.9a9.38,9.38,0,0,0,0-18.75c-5,0-8.9,4.1-8.9,9.38S1084.85,154.23,1089.87,154.23ZM1086,138.85h4.58a3.48,3.48,0,0,1,3.76,3.63,3.15,3.15,0,0,1-2.18,3.16v0.06a3.27,3.27,0,0,1,.41.66l2.27,4.39h-2.46l-2.21-4.61h-1.93v4.61H1086v-11.9Zm4.14,5.65a1.83,1.83,0,0,0,1.93-2,1.78,1.78,0,0,0-1.93-1.93h-1.89v3.95h1.89Z"/>
  <path class="logo-relativity" d="M985.56,278.17c8.23,0,15.43-3,19-13l5.34-14.9L965.31,144.85h21l33.26,78.54,28.15-78.54h20.66l-48.06,129.79c-5.4,14.61-18.69,21.24-33.66,21.24l-3.58,0V278.12Z"/>
  <path class="logo-relativity" d="M913.51,161.4H903.42V144.85h10.09V110.48H934v34.37h20.49l7,16.55H934v48c0,21.31,15,24,22.78,24a24.64,24.64,0,0,0,4.85-.42V251.2a56.11,56.11,0,0,1-7.17.42c-13.71,0-40.92-4.22-40.92-39.87V161.4Z"/>
  <path class="logo-relativity" d="M866.79,144.85h20.46V251.62H866.79V144.85Z"/>
  <path class="logo-relativity" d="M877,106.61h0A12.88,12.88,0,0,1,890,119.42v0.26A12.88,12.88,0,0,1,877,132.5h0a12.88,12.88,0,0,1-12.94-12.81v-0.26A12.88,12.88,0,0,1,877,106.61Z"/>
  <polygon class="logo-relativity" points="832.13 144.85 801.62 223.39 771.11 144.85 750.05 144.85 791.87 251.62 811.13 251.62 853.19 144.85 832.13 144.85"/>
  <path class="logo-relativity" d="M716,144.85h20.46V251.62H716V144.85Z"/>
  <path class="logo-relativity" d="M726.22,106.61h0a12.88,12.88,0,0,1,12.94,12.81v0.26a12.88,12.88,0,0,1-12.94,12.81h0a12.88,12.88,0,0,1-12.94-12.81v-0.26A12.88,12.88,0,0,1,726.22,106.61Z"/>
  <path class="logo-relativity" d="M650.62,161.4H640.53V144.85h10.09V110.48h20.46v34.37h27.63V161.4H671.08v48c0,21.31,15,24,22.78,24a24.64,24.64,0,0,0,4.85-.42V251.2a56.11,56.11,0,0,1-7.17.42c-13.71,0-40.92-4.22-40.92-39.87V161.4Z"/>
  <path class="logo-relativity" d="M630.17,187c0-7.26.21-15.09-1.8-22.13s-5-11.34-11-15.78a42.26,42.26,0,0,0-20.76-7.7,70.71,70.71,0,0,0-35.51,5,103.86,103.86,0,0,0-12.43,6.43l8.3,14.8c11.49-5.81,23.55-9.79,36.43-8.51,10,1,17.27,8.72,17.27,18v5.54H592c-13.76,0-30.19,0-43,13.86a27.47,27.47,0,0,0-6.45,12.79,43.74,43.74,0,0,0-1.13,9.92h0c0,16,11.13,27.72,27.17,31.93,13,3.4,23.45.88,35.16-5a83.26,83.26,0,0,0,7.62-4.17v9.59h18.83S630.25,207.46,630.17,187Zm-19.52,35a43.78,43.78,0,0,1-7.52,6.54A38.58,38.58,0,0,1,581.69,235c-19.26,0-21.19-13.56-21.37-17.11a15.67,15.67,0,0,1,.54-4.36c2-7.5,9.29-14.22,26.64-14.22h23.16V222Z"/>
  <path class="logo-relativity" d="M497.89,101.29h20.46V218.15c0,12.87,5.06,15.19,11.39,15.19a32.64,32.64,0,0,0,3.59-.21v18.14a57.5,57.5,0,0,1-6.75.42c-11.6,0-28.69-3.16-28.69-30V101.29Z"/>
  <path class="logo-relativity" d="M438.3,140.95c30.16,0,47,22.36,47,50,0,1.83-.28,5.16-0.47,7.17-0.09,1-.16,1.69-0.16,1.69H406.88c1.05,23.41,17.72,35.23,36.7,35.23,18.35,0,31.64-12.45,31.64-12.45l8.44,15a63.53,63.53,0,0,1-41.34,15.19c-33.54,0-56.53-24.26-56.53-55.9C385.78,162.88,407.92,140.95,438.3,140.95Zm26.17,43.45c-0.63-18.35-12.88-27.21-26.59-27.21-15.61,0-27.41,9.7-30.37,27.21h57Z"/>
  <path class="logo-relativity" d="M356.65,188c14.7-6,24.24-23.26,24.24-42.51,0-19.62-9.91-34.87-25.1-40.57-5.7-2.11-12.23-3.65-27.84-3.65h-49.7V251.66h20.18V191.13h31.83c22,8.18,33.54,60.53,33.54,60.53h20.95S375.17,206.41,356.65,188Zm-58.22-68.38h28.89c11.6,0,16.45,1.29,20.46,3.4,7.59,4.22,11.81,12,11.81,23,0,12.15-5.39,20.87-14.61,24.73-3.64,1.35-8.58,2.06-17.67,2.06H298.43V119.59Z"/>
  <path class="logo-relativity" d="M251.55,101.29H150.37v49.2h-49.2V251.66H202.35v-49.2h49.2V101.29ZM189.38,238.69H114.14V163.45h36.23v39h39v36.23Zm0-49.2h-26v-26h26v26Zm49.2,0H202.35v-39h-39V114.25h75.24V189.5Z"/>
</svg>