<?xml version="1.0" encoding="UTF-8"?>
<svg width="16px" height="17px" viewBox="0 0 16 17" version="1.1" xmlns="http://www.w3.org/2000/svg" xmlns:xlink="http://www.w3.org/1999/xlink">
    <!-- Generator: Sketch 45.2 (43514) - http://www.bohemiancoding.com/sketch -->
    <title>Icon/Script</title>
    <desc>Created with Sketch.</desc>
    <defs></defs>
    <g id="Style-guide" stroke="none" stroke-width="1" fill="none" fill-rule="evenodd">
        <g transform="translate(-574.000000, -245.000000)" id="Icon/Script" fill="#2E2E2E">
            <g transform="translate(574.000000, 246.000000)">
                <path d="M3.83098592,-0.41314554 L3.83098592,8.56338028 L0,8.56338028 C0,8.56338028 0,9.27698809 0,10.7042254 C0,12.1314626 0,13.1580563 0,13.7840376 C0,14.1095477 0.0625971921,14.3849753 0.187793427,14.6103286 C0.312989686,14.835682 0.488261709,15.0234735 0.713615023,15.1737089 C0.913928894,15.3239444 1.13301922,15.4303596 1.37089202,15.4929577 C1.60876482,15.5555559 1.84037438,15.5868545 2.0657277,15.5868545 C2.29108101,15.5868545 2.93583204,15.5868545 3.9999988,15.5868545 C5.06416796,15.5868545 6.24725574,15.5868545 7.54929577,15.5868545 C8.87637574,15.5868545 10.1596184,15.5868545 11.3990622,15.5868545 C12.6385037,15.5868545 13.5336431,15.5868545 14.084507,15.5868545 C14.3348991,15.5868545 14.57277,15.5367767 14.7981221,15.4366197 C15.0234742,15.3364627 15.2237864,15.1862294 15.399061,14.9859155 C15.5993756,14.8106408 15.749608,14.6103298 15.8497653,14.3849765 C15.9499226,14.1596232 16,13.921754 16,13.6713615 C16,13.3208119 16,10.885781 16,6.36619598 C16,1.84661333 16,-0.41314554 16,-0.41314554 L3.83098592,-0.41314554 Z M2.0657277,14.9483568 C1.86541383,14.9483568 1.57746671,14.8732402 1.20187793,14.7230047 C0.826289157,14.5727692 0.638497653,14.2597834 0.638497653,13.7840376 L0.638497653,9.20187793 L3.83098592,9.20187793 L3.83098592,13.5211268 C3.83098592,13.6212838 3.79968661,13.7527378 3.7370904,13.915493 C3.67449179,14.0782481 3.58059628,14.2347411 3.45539906,14.3849765 C3.33020184,14.535212 3.17371012,14.6666662 2.98591669,14.7793427 C2.79812086,14.8920193 2.60407046,14.9483568 2.40375587,14.9483568 L2.0657277,14.9483568 Z M15.3615023,13.6713615 C15.3615023,13.821597 15.3239437,13.9780899 15.2488263,14.1408451 C15.1737089,14.3036003 15.073554,14.4350542 14.9483568,14.5352113 C14.8481995,14.6604075 14.7167453,14.7605629 14.5539918,14.8356808 C14.3912359,14.9107986 14.2347418,14.9483568 14.084507,14.9483568 L3.79342723,14.9483568 C3.91862445,14.8481998 4.01877934,14.7355249 4.09389671,14.6103286 C4.16901408,14.4851324 4.24413146,14.359938 4.31924883,14.2347418 C4.36932627,14.0845063 4.40688496,13.9530521 4.43192488,13.8403756 C4.45696481,13.727699 4.46948357,13.6212838 4.46948357,13.5211268 L4.46948357,0.225352113 L15.3615023,0.225352113 L15.3615023,13.6713615 Z M5.74647887,10.4694836 L14.084507,10.4694836 L14.084507,9.83098592 L5.74647887,9.83098592 L5.74647887,10.4694836 Z M5.74647887,7.90610329 L14.084507,7.90610329 L14.084507,7.26760563 L5.74647887,7.26760563 L5.74647887,7.90610329 Z M5.74647887,5.342723 L14.084507,5.342723 L14.084507,4.70422535 L5.74647887,4.70422535 L5.74647887,5.342723 Z M5.74647887,2.77934272 L14.084507,2.77934272 L14.084507,2.14084507 L5.74647887,2.14084507 L5.74647887,2.77934272 Z M5.74647887,13.0328638 L14.084507,13.0328638 L14.084507,12.3943662 L5.74647887,12.3943662 L5.74647887,13.0328638 Z" id="Page-1"></path>
            </g>
        </g>
    </g>
</svg>