<?xml version="1.0" encoding="UTF-8"?>
<svg width="17px" height="16px" viewBox="0 0 17 16" version="1.1" xmlns="http://www.w3.org/2000/svg" xmlns:xlink="http://www.w3.org/1999/xlink">
    <!-- Generator: Sketch 45.2 (43514) - http://www.bohemiancoding.com/sketch -->
    <title>Icon/Tool</title>
    <desc>Created with Sketch.</desc>
    <defs></defs>
    <g id="Style-guide" stroke="none" stroke-width="1" fill="none" fill-rule="evenodd">
        <g transform="translate(-538.000000, -246.000000)" id="Icon/Tool" fill="#2E2E2E">
            <g transform="translate(538.000000, 246.000000)">
                <path d="M15.649123,13.4497817 L12.4561405,10.3056769 L12.8771931,9.88646288 L12.4561405,9.46724891 L11.1929826,10.7248908 L9.08771946,8.59388646 L11.6140352,6.07860262 C11.7777787,6.12518121 11.9473675,6.16593775 12.1228083,6.20087448 C12.2982469,6.23580898 12.4795308,6.25327511 12.6666668,6.25327511 C12.8771931,6.25327511 13.0818696,6.23580898 13.2807008,6.20087448 C13.4795342,6.16593775 13.6725133,6.10189303 13.8596493,6.00873362 C14.0467853,5.93886463 14.2280692,5.84570746 14.4035078,5.72925764 C14.5789487,5.61280783 14.7368423,5.48471616 14.8771931,5.34497817 C15.111112,5.11208077 15.3040934,4.85589743 15.4561394,4.57641921 C15.6081877,4.296941 15.7076032,4.00582316 15.7543861,3.70305677 C15.8245616,3.42357855 15.8421065,3.12663867 15.8070166,2.81222596 C15.7719289,2.49781548 15.6842107,2.18922928 15.5438598,1.88646288 L15.3684212,1.50218341 L14.0000002,2.82969432 L12.9122809,2.86462882 L12.9473686,1.81659389 L14.3157896,0.419213974 L13.9298247,0.244541485 C13.8128642,0.221251074 13.7076032,0.192140856 13.6140352,0.157204122 C13.5204672,0.122269624 13.4152063,0.0931594061 13.2982458,0.0698689956 C13.2046778,0.0465785852 13.1052644,0.0291124541 12.999999,0.017466131 C12.8947359,0.00582204367 12.7836274,0 12.6666668,0 C12.4561405,0 12.251464,0.017466131 12.0526329,0.0524028646 C11.8537995,0.0873373624 11.6608204,0.151382079 11.4736844,0.244541485 C11.2865484,0.31441048 11.1052644,0.407567651 10.9298258,0.524017467 C10.754385,0.640467284 10.5964914,0.768558952 10.4561405,0.908296943 C10.2222216,1.14119434 10.0350879,1.38573359 9.894737,1.6419214 C9.75438612,1.89810921 9.66081812,2.16593663 9.61403525,2.44541485 C9.54385981,2.72489307 9.51461967,3.01018886 9.52631707,3.30130893 C9.53801223,3.59243123 9.60233784,3.88937334 9.71929841,4.19213974 L7.1578949,6.70742358 L3.57894753,3.1441048 L4.00000016,2.72489083 L1.64912297,0.384279476 L0.385965072,1.6419214 L2.73684226,3.98253275 L3.1578949,3.56331878 L6.73684226,7.12663755 L4.21052648,9.6768559 C4.02339048,9.6069869 3.84210655,9.55458627 3.6666657,9.51964954 C3.49122711,9.48471504 3.32163834,9.46724891 3.1578949,9.46724891 C2.94736858,9.46724891 2.73684226,9.49053932 2.52631595,9.5371179 C2.31578851,9.58369649 2.11696027,9.6419214 1.92982472,9.71179039 C1.74268939,9.8049498 1.56725237,9.90392901 1.40350893,10.0087325 C1.23976549,10.1135382 1.0760243,10.2474519 0.912280861,10.4104803 C0.678361535,10.6200873 0.491228904,10.8646266 0.350877353,11.1441048 C0.210525779,11.423583 0.116959464,11.7147009 0.0701755983,12.0174672 C-1.99609932e-07,12.3202336 -0.0175438796,12.6288198 0.0175440193,12.9432303 C0.0526319138,13.257643 0.128654554,13.5662292 0.245614195,13.8689956 L0.421052791,14.2532751 L1.82456156,12.8558952 L2.87719314,12.8558952 L2.87719314,13.9388646 L1.50877209,15.30131 L1.894737,15.4759825 C1.98830478,15.522562 2.08771901,15.5633186 2.19298262,15.5982533 C2.29824622,15.633188 2.40935539,15.6622998 2.52631595,15.6855895 C2.61988395,15.7088793 2.71929728,15.7263463 2.82456044,15.7379913 C2.92982584,15.7496362 3.04093434,15.7554585 3.1578949,15.7554585 C3.36842121,15.7554585 3.5730977,15.732169 3.77193111,15.6855895 C3.97076226,15.63901 4.16374135,15.5807865 4.35087735,15.510917 C4.53801335,15.4177578 4.71929728,15.3187777 4.89473812,15.2139738 C5.07017672,15.1091699 5.22807034,14.9752555 5.36842121,14.8122271 C5.57894753,14.602619 5.75438612,14.3697247 5.894737,14.1135371 C6.03508788,13.8573495 6.14035104,13.5895219 6.21052648,13.3100437 C6.28070191,13.0072773 6.30409448,12.7103352 6.28070191,12.4192151 C6.25730935,12.1280928 6.19883132,11.842797 6.10526332,11.5633188 L8.63157911,9.01310044 L10.77193,11.1441048 L9.50877209,12.4017467 L9.92982472,12.8209607 L10.3508774,12.4017467 L13.5087721,15.5458515 C13.5789475,15.615721 13.6549705,15.6797668 13.7368434,15.7379913 C13.818714,15.7962157 13.9064322,15.8486169 14.0000002,15.8951965 C14.0935682,15.9184863 14.1871339,15.9417757 14.2807019,15.9650655 C14.3742699,15.9883553 14.4678357,16 14.5614037,16 C14.6783642,16 14.7836251,15.9883553 14.8771931,15.9650655 C14.9707611,15.9417757 15.0643269,15.9184863 15.1578949,15.8951965 C15.2514629,15.8486169 15.3391811,15.7962157 15.4210539,15.7379913 C15.5029245,15.6797668 15.5789475,15.615721 15.649123,15.5458515 C15.7894738,15.4061129 15.894737,15.2489092 15.9649124,15.0742358 C16.0350879,14.8995624 16.0701756,14.7074247 16.0701756,14.4978166 C16.0701756,14.3114982 16.0350879,14.1251828 15.9649124,13.9388646 C15.894737,13.7525458 15.7894738,13.5895197 15.649123,13.4497817 Z M1.22807034,1.6419214 L1.64912297,1.22270742 L3.1578949,2.72489083 L2.73684226,3.1441048 L1.22807034,1.6419214 Z M5.47368437,11.5982533 C5.59064493,11.8544411 5.66081812,12.1048024 5.68421069,12.3493461 C5.70760325,12.5938876 5.69590584,12.8442489 5.64912297,13.1004367 C5.60234009,13.3333341 5.52046949,13.5604072 5.40350893,13.7816594 C5.28654837,14.0029123 5.13450458,14.206695 4.94736858,14.3930131 C4.83040802,14.509462 4.70175455,14.6142644 4.56140367,14.7074236 C4.42105279,14.8005828 4.26900676,14.8820956 4.10526332,14.9519651 C3.96491244,15.0218345 3.81286641,15.0684133 3.64912297,15.0917031 C3.48537953,15.1149928 3.32163834,15.1266376 3.1578949,15.1266376 C3.0643269,15.1266376 2.96491356,15.1266376 2.85965041,15.1266376 C2.754385,15.1266376 2.65497167,15.1149928 2.56140367,15.0917031 L3.43859665,14.2183406 L3.47368437,12.2620087 L1.57894753,12.2620087 L0.666666826,13.1703057 C0.619883051,12.9606987 0.596491388,12.7510917 0.596491388,12.5414847 C0.596491388,12.3318777 0.631578658,12.1222707 0.701754546,11.9126638 C0.748538321,11.7263449 0.830408918,11.5342086 0.947368581,11.3362434 C1.06432824,11.1382805 1.19298194,10.9694323 1.33333349,10.8296943 C1.45029316,10.7132445 1.57894685,10.6084432 1.71929841,10.5152838 C1.85964996,10.4221244 2.01169532,10.3406114 2.17543876,10.2707424 C2.31578963,10.2008734 2.46783567,10.1542948 2.63157911,10.1310044 C2.79532255,10.107714 2.9707589,10.0960699 3.1578949,10.0960699 C3.32163834,10.0960699 3.49122711,10.113536 3.6666657,10.1484705 C3.84210655,10.1834072 4.00000016,10.2241638 4.14035104,10.2707424 L4.35087735,10.3755459 L10.4210528,4.33187773 L10.3508774,4.12227074 C10.2339168,3.88937334 10.1637436,3.6448341 10.140351,3.38864629 C10.1169585,3.13245848 10.1286559,2.88791923 10.1754388,2.65502183 C10.2222216,2.39883403 10.3040922,2.16011682 10.4210528,1.93886575 C10.5380134,1.71761244 10.6900571,1.51382973 10.8771931,1.32751092 C10.9941537,1.2110611 11.1228072,1.10625984 11.2631581,1.01310044 C11.4035089,0.919941031 11.5438598,0.850072035 11.6842107,0.80349345 C11.8479541,0.733624454 12.0116953,0.681223825 12.1754388,0.646287092 C12.3391822,0.611352594 12.5029234,0.593886463 12.6666668,0.593886463 C12.7602348,0.593886463 12.8538006,0.599708507 12.9473686,0.61135483 C13.0409366,0.622998917 13.1345023,0.640465048 13.2280703,0.663755459 L12.3508774,1.5720524 L12.3157896,3.45851528 L14.2807019,3.42358079 L15.1578949,2.55021834 C15.2046778,2.75982533 15.2222228,2.97525436 15.2105276,3.19650767 C15.1988302,3.41775874 15.1695901,3.62154145 15.1228072,3.80786026 C15.0526317,4.01746725 14.9649136,4.21542791 14.8596504,4.40174672 C14.754385,4.58806554 14.6198839,4.76273579 14.4561405,4.92576419 C14.3391799,5.04221401 14.2105265,5.14701527 14.0701756,5.24017467 C13.9298247,5.33333408 13.7894738,5.41484716 13.649123,5.48471616 C13.4853795,5.53129474 13.3216383,5.57205128 13.1578949,5.60698578 C12.9941515,5.64192252 12.8304103,5.65938865 12.6666668,5.65938865 C12.5029234,5.65938865 12.3333346,5.64192252 12.1578938,5.60698578 C11.9824552,5.57205128 11.8128664,5.51965066 11.649123,5.44978166 L11.4736844,5.37991266 L5.40350893,11.4235808 L5.47368437,11.5982533 Z M15.1929826,15.1266376 C15.1228072,15.2197967 15.0292414,15.2896651 14.9122809,15.3362445 C14.7953203,15.382824 14.6783642,15.4061135 14.5614037,15.4061135 C14.4444431,15.4061135 14.3333346,15.382824 14.2280715,15.3362445 C14.1228061,15.2896651 14.0233927,15.2197967 13.9298247,15.1266376 L10.77193,11.9825328 L12.0350879,10.7248908 L15.1929826,13.8689956 C15.2865506,13.9621548 15.3567261,14.0611349 15.4035089,14.1659389 C15.4502918,14.2707428 15.4736844,14.3813677 15.4736844,14.4978166 C15.4736844,14.6142655 15.4502918,14.7307126 15.4035089,14.8471616 C15.3567261,14.9636105 15.2865506,15.0567681 15.1929826,15.1266376 Z" id="Page-1"></path>
            </g>
        </g>
    </g>
</svg>